<svg width="26" height="25" viewBox="0 0 26 25" fill="none" xmlns="http://www.w3.org/2000/svg">
<rect x="0.5" width="25" height="25.0015" rx="8" fill="#B5F433"/>
<path d="M19.0968 8.88885H18.8035C19.0655 8.59659 19.2373 8.23471 19.2981 7.84693C19.3588 7.45915 19.306 7.06207 19.146 6.70367C18.986 6.34526 18.7256 6.04087 18.3963 5.82727C18.0669 5.61367 17.6828 5.5 17.2903 5.5C16.8978 5.5 16.5137 5.61367 16.1844 5.82727C15.8551 6.04087 15.5947 6.34526 15.4347 6.70367C15.2746 7.06207 15.2218 7.45915 15.2826 7.84693C15.3434 8.23471 15.5151 8.59659 15.7771 8.88885H13V6.63079C13 6.5709 12.9762 6.51346 12.9339 6.47112C12.8915 6.42877 12.8341 6.40498 12.7742 6.40498H11.871C11.8111 6.40498 11.7536 6.42877 11.7113 6.47112C11.669 6.51346 11.6452 6.5709 11.6452 6.63079V8.88885H11.4194V5.72756C11.4194 5.66767 11.3956 5.61024 11.3532 5.56789C11.3109 5.52554 11.2534 5.50175 11.1935 5.50175H10.2903C10.2304 5.50175 10.173 5.52554 10.1307 5.56789C10.0883 5.61024 10.0645 5.66767 10.0645 5.72756V8.88885H9.83871V7.30821C9.83871 7.24832 9.81492 7.19088 9.77257 7.14854C9.73023 7.10619 9.67279 7.0824 9.6129 7.0824H8.70968C8.64979 7.0824 8.59236 7.10619 8.55001 7.14854C8.50766 7.19088 8.48387 7.24832 8.48387 7.30821V8.88885H6.90323C6.66376 8.88912 6.43418 8.98437 6.26485 9.1537C6.09552 9.32302 6.00027 9.55261 6 9.79208V16.5663C6.00027 16.8057 6.09552 17.0353 6.26485 17.2046C6.43418 17.374 6.66376 17.4692 6.90323 17.4695H11.5577L11.2565 18.3727H10.5161C10.4562 18.3727 10.3988 18.3965 10.3565 18.4389C10.3141 18.4812 10.2903 18.5386 10.2903 18.5985V19.0501H8.03226C7.97237 19.0501 7.91494 19.0739 7.87259 19.1163C7.83024 19.1586 7.80645 19.2161 7.80645 19.2759C7.80645 19.3358 7.83024 19.3933 7.87259 19.4356C7.91494 19.478 7.97237 19.5018 8.03226 19.5018H17.9677C18.0276 19.5018 18.0851 19.478 18.1274 19.4356C18.1698 19.3933 18.1935 19.3358 18.1935 19.2759C18.1935 19.2161 18.1698 19.1586 18.1274 19.1163C18.0851 19.0739 18.0276 19.0501 17.9677 19.0501H15.7097V18.5985C15.7097 18.5386 15.6859 18.4812 15.6435 18.4389C15.6012 18.3965 15.5438 18.3727 15.4839 18.3727H14.7435L14.4423 17.4695H19.0968C19.3362 17.4692 19.5658 17.374 19.7352 17.2046C19.9045 17.0353 19.9997 16.8057 20 16.5663V9.79208C19.9997 9.55261 19.9045 9.32302 19.7352 9.1537C19.5658 8.98437 19.3362 8.88912 19.0968 8.88885ZM17.5161 5.96974C17.8536 6.01898 18.1662 6.17585 18.4073 6.41701C18.6485 6.65817 18.8054 6.97073 18.8546 7.30821H17.5161V5.96974ZM17.3837 7.75982H18.8546C18.8156 8.03115 18.7067 8.28767 18.5385 8.50414C18.3703 8.72062 18.1487 8.8896 17.8954 8.99448C17.6422 9.09935 17.366 9.13652 17.094 9.10231C16.822 9.0681 16.5636 8.9637 16.3442 8.79937L17.3837 7.75982ZM15.7097 7.53401C15.7102 7.15409 15.8474 6.78703 16.0961 6.49985C16.3448 6.21266 16.6886 6.02451 17.0645 5.96974V7.44058L16.025 8.48014C15.82 8.20733 15.7093 7.87524 15.7097 7.53401ZM12.0968 6.85659H12.5484V11.1469H12.0968V6.85659ZM11.4194 9.34046H11.6452V11.1469H11.4194V9.34046ZM10.5161 5.95337H10.9677V11.1469H10.5161V5.95337ZM9.83871 9.34046H10.0645V11.1469H9.83871V9.34046ZM8.93548 7.53401H9.3871V11.1469H8.93548V7.53401ZM15.2581 18.8243V19.0501H10.7419V18.8243H15.2581ZM11.7327 18.3727L12.0338 17.4695H13.9662L14.2673 18.3727H11.7327ZM19.5484 16.5663C19.5482 16.686 19.5006 16.8008 19.4159 16.8854C19.3313 16.9701 19.2165 17.0177 19.0968 17.0179H6.90323C6.7835 17.0177 6.66872 16.9701 6.58406 16.8854C6.4994 16.8008 6.45177 16.686 6.45161 16.5663V16.1147H19.5484V16.5663ZM19.5484 15.663H6.45161V9.79208C6.45177 9.67235 6.4994 9.55757 6.58406 9.47291C6.66872 9.38825 6.7835 9.34062 6.90323 9.34046H8.48387V11.1469H8.25806V9.79208C8.25806 9.73219 8.23427 9.67475 8.19193 9.63241C8.14958 9.59006 8.09215 9.56627 8.03226 9.56627H7.12903C7.06914 9.56627 7.01171 9.59006 6.96936 9.63241C6.92702 9.67475 6.90323 9.73219 6.90323 9.79208V11.3727C6.90323 11.4326 6.92702 11.49 6.96936 11.5324C7.01171 11.5747 7.06914 11.5985 7.12903 11.5985H14.3548C14.4147 11.5985 14.4722 11.5747 14.5145 11.5324C14.5569 11.49 14.5806 11.4326 14.5806 11.3727V9.79208C14.5806 9.73219 14.5569 9.67475 14.5145 9.63241C14.4722 9.59006 14.4147 9.56627 14.3548 9.56627H13.4516C13.3917 9.56627 13.3343 9.59006 13.2919 9.63241C13.2496 9.67475 13.2258 9.73219 13.2258 9.79208V11.1469H13V9.34046H16.3611C16.6484 9.48884 16.967 9.56627 17.2903 9.56627C17.6136 9.56627 17.9323 9.48884 18.2195 9.34046H19.0968C19.2165 9.34062 19.3313 9.38825 19.4159 9.47291C19.5006 9.55757 19.5482 9.67235 19.5484 9.79208V15.663ZM7.80645 10.0179V11.1469H7.35484V10.0179H7.80645ZM13.6774 11.1469V10.0179H14.129V11.1469H13.6774Z" fill="#373737"/>
<path d="M8.48494 16.3408H7.1301C7.07022 16.3408 7.01278 16.3646 6.97043 16.407C6.92809 16.4493 6.9043 16.5067 6.9043 16.5666C6.9043 16.6265 6.92809 16.6839 6.97043 16.7263C7.01278 16.7686 7.07022 16.7924 7.1301 16.7924H8.48494C8.54483 16.7924 8.60226 16.7686 8.64461 16.7263C8.68696 16.6839 8.71075 16.6265 8.71075 16.5666C8.71075 16.5067 8.68696 16.4493 8.64461 16.407C8.60226 16.3646 8.54483 16.3408 8.48494 16.3408Z" fill="#373737"/>
<path d="M9.38814 16.3408H9.16233C9.10244 16.3408 9.04501 16.3646 9.00266 16.407C8.96031 16.4493 8.93652 16.5067 8.93652 16.5666C8.93652 16.6265 8.96031 16.6839 9.00266 16.7263C9.04501 16.7686 9.10244 16.7924 9.16233 16.7924H9.38814C9.44802 16.7924 9.50546 16.7686 9.54781 16.7263C9.59015 16.6839 9.61394 16.6265 9.61394 16.5666C9.61394 16.5067 9.59015 16.4493 9.54781 16.407C9.50546 16.3646 9.44802 16.3408 9.38814 16.3408Z" fill="#373737"/>
<path d="M15.4846 11.1468C15.5143 11.1469 15.5436 11.1411 15.571 11.1297C15.5984 11.1184 15.6233 11.1017 15.6443 11.0807L16.4813 10.2436H18.4201C18.48 10.2436 18.5374 10.2198 18.5798 10.1775C18.6221 10.1351 18.6459 10.0777 18.6459 10.0178C18.6459 9.95791 18.6221 9.90048 18.5798 9.85813C18.5374 9.81578 18.48 9.79199 18.4201 9.79199H16.3878C16.3582 9.79199 16.3288 9.79783 16.3014 9.80918C16.274 9.82053 16.2491 9.83716 16.2282 9.85813L15.3249 10.7614C15.2933 10.7929 15.2718 10.8332 15.2631 10.877C15.2544 10.9208 15.2589 10.9662 15.276 11.0074C15.2931 11.0487 15.322 11.084 15.3591 11.1088C15.3963 11.1336 15.4399 11.1468 15.4846 11.1468Z" fill="#373737"/>
<path d="M18.4193 13.6304C18.3006 13.6305 18.184 13.6618 18.0813 13.7211C17.9785 13.7804 17.8931 13.8656 17.8336 13.9683L15.4697 12.5892C15.4376 12.4353 15.3531 12.2974 15.2305 12.199C15.108 12.1006 14.955 12.0479 14.7978 12.0499C14.6407 12.0519 14.4891 12.1085 14.3691 12.2099C14.249 12.3114 14.168 12.4515 14.1399 12.6061L11.7611 14.3903C11.6964 14.2906 11.6065 14.2098 11.5007 14.1558C11.3948 14.1019 11.2766 14.0768 11.1579 14.083C11.0392 14.0892 10.9243 14.1266 10.8247 14.1913C10.725 14.2561 10.6442 14.3459 10.5903 14.4518L8.23906 13.4721C8.20196 13.3174 8.11164 13.1807 7.9839 13.0859C7.85616 12.9911 7.69914 12.9443 7.54035 12.9536C7.38155 12.9629 7.2311 13.0278 7.11532 13.1369C6.99954 13.246 6.92582 13.3923 6.90707 13.5503C6.88832 13.7082 6.92573 13.8677 7.01275 14.0009C7.09977 14.1341 7.23085 14.2324 7.38305 14.2786C7.53525 14.3248 7.69887 14.3161 7.84525 14.2538C7.99163 14.1916 8.11146 14.0798 8.18374 13.9381L10.5349 14.9178C10.5712 15.0689 10.6584 15.2029 10.7818 15.2973C10.9051 15.3918 11.0572 15.441 11.2125 15.4366C11.3678 15.4322 11.5169 15.3746 11.6348 15.2734C11.7526 15.1721 11.8321 15.0334 11.8599 14.8806L14.2387 13.0964C14.3018 13.1935 14.3886 13.2728 14.491 13.3267C14.5934 13.3806 14.708 13.4074 14.8237 13.4044C14.9394 13.4015 15.0524 13.3689 15.1519 13.3097C15.2514 13.2506 15.3341 13.167 15.392 13.0668L17.756 14.4459C17.782 14.5713 17.8431 14.6867 17.9322 14.7787C18.0212 14.8708 18.1345 14.9358 18.2589 14.9661C18.3833 14.9964 18.5138 14.9908 18.6352 14.9499C18.7566 14.9091 18.8639 14.8347 18.9447 14.7353C19.0255 14.636 19.0765 14.5158 19.0918 14.3886C19.107 14.2615 19.0859 14.1326 19.0309 14.0169C18.9759 13.9013 18.8893 13.8036 18.781 13.7352C18.6728 13.6668 18.5473 13.6305 18.4193 13.6304ZM7.80636 13.6316C7.80621 13.6916 7.78225 13.749 7.73976 13.7914C7.69726 13.8337 7.63969 13.8575 7.57971 13.8574C7.51972 13.8573 7.46221 13.8334 7.41982 13.791C7.37743 13.7485 7.35362 13.691 7.35362 13.631C7.35362 13.571 7.37743 13.5135 7.41982 13.471C7.46221 13.4286 7.51972 13.4047 7.57971 13.4046C7.63969 13.4046 7.69726 13.4283 7.73976 13.4706C7.78225 13.513 7.80621 13.5705 7.80636 13.6304V13.6316ZM11.1935 14.9853C11.1336 14.9852 11.0762 14.9614 11.0339 14.9191C10.9915 14.8767 10.9677 14.8193 10.9676 14.7595V14.7584C10.9679 14.7137 10.9813 14.6702 11.0063 14.6332C11.0312 14.5962 11.0665 14.5675 11.1078 14.5505C11.1491 14.5336 11.1945 14.5293 11.2382 14.5382C11.2819 14.547 11.3221 14.5686 11.3535 14.6002C11.385 14.6318 11.4064 14.6721 11.415 14.7158C11.4236 14.7596 11.4191 14.805 11.402 14.8462C11.3848 14.8873 11.3559 14.9225 11.3188 14.9473C11.2817 14.9721 11.2381 14.9853 11.1935 14.9853ZM14.8064 12.953C14.7617 12.953 14.718 12.9398 14.6809 12.915C14.6438 12.8902 14.6148 12.8549 14.5977 12.8136C14.5806 12.7724 14.5762 12.727 14.5849 12.6832C14.5936 12.6394 14.6151 12.5991 14.6467 12.5676C14.6783 12.536 14.7185 12.5145 14.7623 12.5058C14.8061 12.497 14.8515 12.5015 14.8928 12.5186C14.934 12.5357 14.9693 12.5646 14.9941 12.6018C15.0189 12.6389 15.0322 12.6826 15.0322 12.7272C15.0321 12.7871 15.0083 12.8445 14.9659 12.8868C14.9236 12.9291 14.8662 12.9529 14.8064 12.953ZM18.4193 14.5337C18.3746 14.5337 18.3309 14.5204 18.2938 14.4956C18.2567 14.4708 18.2277 14.4355 18.2106 14.3943C18.1936 14.353 18.1891 14.3076 18.1978 14.2638C18.2065 14.22 18.228 14.1798 18.2596 14.1482C18.2912 14.1166 18.3314 14.0951 18.3752 14.0864C18.419 14.0777 18.4644 14.0822 18.5057 14.0993C18.5469 14.1163 18.5822 14.1453 18.607 14.1824C18.6318 14.2196 18.6451 14.2632 18.6451 14.3079C18.645 14.3677 18.6212 14.4251 18.5788 14.4674C18.5365 14.5098 18.4791 14.5336 18.4193 14.5337Z" fill="#373737"/>
<path d="M16.6111 14.9854H15.0305C14.9706 14.9854 14.9132 15.0091 14.8708 15.0515C14.8285 15.0938 14.8047 15.1513 14.8047 15.2112C14.8047 15.271 14.8285 15.3285 14.8708 15.3708C14.9132 15.4132 14.9706 15.437 15.0305 15.437H16.6111C16.671 15.437 16.7285 15.4132 16.7708 15.3708C16.8132 15.3285 16.8369 15.271 16.8369 15.2112C16.8369 15.1513 16.8132 15.0938 16.7708 15.0515C16.7285 15.0091 16.671 14.9854 16.6111 14.9854Z" fill="#373737"/>
<path d="M16.6122 14.3086H15.9348C15.8749 14.3086 15.8175 14.3324 15.7751 14.3747C15.7328 14.4171 15.709 14.4745 15.709 14.5344C15.709 14.5943 15.7328 14.6517 15.7751 14.6941C15.8175 14.7364 15.8749 14.7602 15.9348 14.7602H16.6122C16.6721 14.7602 16.7295 14.7364 16.7719 14.6941C16.8142 14.6517 16.838 14.5943 16.838 14.5344C16.838 14.4745 16.8142 14.4171 16.7719 14.3747C16.7295 14.3324 16.6721 14.3086 16.6122 14.3086Z" fill="#373737"/>
<path d="M7.1301 12.2758H9.61397C9.67386 12.2758 9.7313 12.252 9.77364 12.2097C9.81599 12.1673 9.83978 12.1099 9.83978 12.05C9.83978 11.9901 9.81599 11.9327 9.77364 11.8904C9.7313 11.848 9.67386 11.8242 9.61397 11.8242H7.1301C7.07022 11.8242 7.01278 11.848 6.97043 11.8904C6.92809 11.9327 6.9043 11.9901 6.9043 12.05C6.9043 12.1099 6.92809 12.1673 6.97043 12.2097C7.01278 12.252 7.07022 12.2758 7.1301 12.2758Z" fill="#373737"/>
<path d="M10.2893 12.2758H10.5151C10.575 12.2758 10.6324 12.252 10.6748 12.2097C10.7171 12.1673 10.7409 12.1099 10.7409 12.05C10.7409 11.9901 10.7171 11.9327 10.6748 11.8904C10.6324 11.848 10.575 11.8242 10.5151 11.8242H10.2893C10.2294 11.8242 10.172 11.848 10.1296 11.8904C10.0873 11.9327 10.0635 11.9901 10.0635 12.05C10.0635 12.1099 10.0873 12.1673 10.1296 12.2097C10.172 12.252 10.2294 12.2758 10.2893 12.2758Z" fill="#373737"/>
</svg>
