<svg width="26" height="25" viewBox="0 0 26 25" fill="none" xmlns="http://www.w3.org/2000/svg">
<rect x="0.5" width="25" height="25.0015" rx="8" fill="white"/>
<path d="M19.0968 8.88885H18.8035C19.0655 8.59659 19.2373 8.23471 19.2981 7.84693C19.3588 7.45915 19.306 7.06207 19.146 6.70367C18.986 6.34526 18.7256 6.04087 18.3963 5.82727C18.0669 5.61367 17.6828 5.5 17.2903 5.5C16.8978 5.5 16.5137 5.61367 16.1844 5.82727C15.8551 6.04087 15.5947 6.34526 15.4347 6.70367C15.2746 7.06207 15.2218 7.45915 15.2826 7.84693C15.3434 8.23471 15.5151 8.59659 15.7771 8.88885H13V6.63079C13 6.5709 12.9762 6.51346 12.9339 6.47112C12.8915 6.42877 12.8341 6.40498 12.7742 6.40498H11.871C11.8111 6.40498 11.7536 6.42877 11.7113 6.47112C11.669 6.51346 11.6452 6.5709 11.6452 6.63079V8.88885H11.4194V5.72756C11.4194 5.66767 11.3956 5.61024 11.3532 5.56789C11.3109 5.52554 11.2534 5.50175 11.1935 5.50175H10.2903C10.2304 5.50175 10.173 5.52554 10.1307 5.56789C10.0883 5.61024 10.0645 5.66767 10.0645 5.72756V8.88885H9.83871V7.30821C9.83871 7.24832 9.81492 7.19088 9.77257 7.14854C9.73023 7.10619 9.67279 7.0824 9.6129 7.0824H8.70968C8.64979 7.0824 8.59236 7.10619 8.55001 7.14854C8.50766 7.19088 8.48387 7.24832 8.48387 7.30821V8.88885H6.90323C6.66376 8.88912 6.43418 8.98437 6.26485 9.1537C6.09552 9.32302 6.00027 9.55261 6 9.79208V16.5663C6.00027 16.8057 6.09552 17.0353 6.26485 17.2046C6.43418 17.374 6.66376 17.4692 6.90323 17.4695H11.5577L11.2565 18.3727H10.5161C10.4562 18.3727 10.3988 18.3965 10.3565 18.4389C10.3141 18.4812 10.2903 18.5386 10.2903 18.5985V19.0501H8.03226C7.97237 19.0501 7.91494 19.0739 7.87259 19.1163C7.83024 19.1586 7.80645 19.2161 7.80645 19.2759C7.80645 19.3358 7.83024 19.3933 7.87259 19.4356C7.91494 19.478 7.97237 19.5018 8.03226 19.5018H17.9677C18.0276 19.5018 18.0851 19.478 18.1274 19.4356C18.1698 19.3933 18.1935 19.3358 18.1935 19.2759C18.1935 19.2161 18.1698 19.1586 18.1274 19.1163C18.0851 19.0739 18.0276 19.0501 17.9677 19.0501H15.7097V18.5985C15.7097 18.5386 15.6859 18.4812 15.6435 18.4389C15.6012 18.3965 15.5438 18.3727 15.4839 18.3727H14.7435L14.4423 17.4695H19.0968C19.3362 17.4692 19.5658 17.374 19.7352 17.2046C19.9045 17.0353 19.9997 16.8057 20 16.5663V9.79208C19.9997 9.55261 19.9045 9.32302 19.7352 9.1537C19.5658 8.98437 19.3362 8.88912 19.0968 8.88885ZM17.5161 5.96974C17.8536 6.01898 18.1662 6.17585 18.4073 6.41701C18.6485 6.65817 18.8054 6.97073 18.8546 7.30821H17.5161V5.96974ZM17.3837 7.75982H18.8546C18.8156 8.03115 18.7067 8.28767 18.5385 8.50414C18.3703 8.72062 18.1487 8.8896 17.8954 8.99448C17.6422 9.09935 17.366 9.13652 17.094 9.10231C16.822 9.0681 16.5636 8.9637 16.3442 8.79937L17.3837 7.75982ZM15.7097 7.53401C15.7102 7.15409 15.8474 6.78703 16.0961 6.49985C16.3448 6.21266 16.6886 6.02451 17.0645 5.96974V7.44058L16.025 8.48014C15.82 8.20733 15.7093 7.87524 15.7097 7.53401ZM12.0968 6.85659H12.5484V11.1469H12.0968V6.85659ZM11.4194 9.34046H11.6452V11.1469H11.4194V9.34046ZM10.5161 5.95337H10.9677V11.1469H10.5161V5.95337ZM9.83871 9.34046H10.0645V11.1469H9.83871V9.34046ZM8.93548 7.53401H9.3871V11.1469H8.93548V7.53401ZM15.2581 18.8243V19.0501H10.7419V18.8243H15.2581ZM11.7327 18.3727L12.0338 17.4695H13.9662L14.2673 18.3727H11.7327ZM19.5484 16.5663C19.5482 16.686 19.5006 16.8008 19.4159 16.8854C19.3313 16.9701 19.2165 17.0177 19.0968 17.0179H6.90323C6.7835 17.0177 6.66872 16.9701 6.58406 16.8854C6.4994 16.8008 6.45177 16.686 6.45161 16.5663V16.1147H19.5484V16.5663ZM19.5484 15.663H6.45161V9.79208C6.45177 9.67235 6.4994 9.55757 6.58406 9.47291C6.66872 9.38825 6.7835 9.34062 6.90323 9.34046H8.48387V11.1469H8.25806V9.79208C8.25806 9.73219 8.23427 9.67475 8.19193 9.63241C8.14958 9.59006 8.09215 9.56627 8.03226 9.56627H7.12903C7.06914 9.56627 7.01171 9.59006 6.96936 9.63241C6.92702 9.67475 6.90323 9.73219 6.90323 9.79208V11.3727C6.90323 11.4326 6.92702 11.49 6.96936 11.5324C7.01171 11.5747 7.06914 11.5985 7.12903 11.5985H14.3548C14.4147 11.5985 14.4722 11.5747 14.5145 11.5324C14.5569 11.49 14.5806 11.4326 14.5806 11.3727V9.79208C14.5806 9.73219 14.5569 9.67475 14.5145 9.63241C14.4722 9.59006 14.4147 9.56627 14.3548 9.56627H13.4516C13.3917 9.56627 13.3343 9.59006 13.2919 9.63241C13.2496 9.67475 13.2258 9.73219 13.2258 9.79208V11.1469H13V9.34046H16.3611C16.6484 9.48884 16.967 9.56627 17.2903 9.56627C17.6136 9.56627 17.9323 9.48884 18.2195 9.34046H19.0968C19.2165 9.34062 19.3313 9.38825 19.4159 9.47291C19.5006 9.55757 19.5482 9.67235 19.5484 9.79208V15.663ZM7.80645 10.0179V11.1469H7.35484V10.0179H7.80645ZM13.6774 11.1469V10.0179H14.129V11.1469H13.6774Z" fill="#373737"/>
<path d="M8.48494 16.3398H7.1301C7.07022 16.3398 7.01278 16.3636 6.97043 16.406C6.92809 16.4483 6.9043 16.5058 6.9043 16.5657C6.9043 16.6255 6.92809 16.683 6.97043 16.7253C7.01278 16.7677 7.07022 16.7915 7.1301 16.7915H8.48494C8.54483 16.7915 8.60226 16.7677 8.64461 16.7253C8.68696 16.683 8.71075 16.6255 8.71075 16.5657C8.71075 16.5058 8.68696 16.4483 8.64461 16.406C8.60226 16.3636 8.54483 16.3398 8.48494 16.3398Z" fill="#373737"/>
<path d="M9.38814 16.3398H9.16233C9.10244 16.3398 9.04501 16.3636 9.00266 16.406C8.96031 16.4483 8.93652 16.5058 8.93652 16.5657C8.93652 16.6255 8.96031 16.683 9.00266 16.7253C9.04501 16.7677 9.10244 16.7915 9.16233 16.7915H9.38814C9.44802 16.7915 9.50546 16.7677 9.54781 16.7253C9.59015 16.683 9.61394 16.6255 9.61394 16.5657C9.61394 16.5058 9.59015 16.4483 9.54781 16.406C9.50546 16.3636 9.44802 16.3398 9.38814 16.3398Z" fill="#373737"/>
<path d="M15.4846 11.1478C15.5143 11.1478 15.5436 11.142 15.571 11.1307C15.5984 11.1193 15.6233 11.1027 15.6443 11.0817L16.4813 10.2446H18.4201C18.48 10.2446 18.5374 10.2208 18.5798 10.1784C18.6221 10.1361 18.6459 10.0787 18.6459 10.0188C18.6459 9.95889 18.6221 9.90145 18.5798 9.85911C18.5374 9.81676 18.48 9.79297 18.4201 9.79297H16.3878C16.3582 9.79297 16.3288 9.79881 16.3014 9.81015C16.274 9.8215 16.2491 9.83813 16.2282 9.8591L15.3249 10.7623C15.2933 10.7939 15.2718 10.8341 15.2631 10.8779C15.2544 10.9217 15.2589 10.9672 15.276 11.0084C15.2931 11.0497 15.322 11.0849 15.3591 11.1098C15.3963 11.1346 15.4399 11.1478 15.4846 11.1478Z" fill="#373737"/>
<path d="M18.4193 13.6314C18.3006 13.6315 18.184 13.6628 18.0813 13.7221C17.9785 13.7814 17.8931 13.8666 17.8336 13.9693L15.4697 12.5902C15.4376 12.4363 15.3531 12.2983 15.2305 12.1999C15.108 12.1015 14.955 12.0488 14.7978 12.0508C14.6407 12.0528 14.4891 12.1094 14.3691 12.2109C14.249 12.3124 14.168 12.4525 14.1399 12.6071L11.7611 14.3913C11.6964 14.2916 11.6065 14.2107 11.5007 14.1568C11.3948 14.1029 11.2766 14.0777 11.1579 14.084C11.0392 14.0902 10.9243 14.1276 10.8247 14.1923C10.725 14.2571 10.6442 14.3469 10.5903 14.4528L8.23906 13.4731C8.20196 13.3184 8.11164 13.1817 7.9839 13.0869C7.85616 12.9921 7.69914 12.9453 7.54035 12.9546C7.38155 12.9639 7.2311 13.0288 7.11532 13.1379C6.99954 13.2469 6.92582 13.3933 6.90707 13.5512C6.88832 13.7092 6.92573 13.8687 7.01275 14.0019C7.09977 14.135 7.23085 14.2333 7.38305 14.2796C7.53525 14.3258 7.69887 14.317 7.84525 14.2548C7.99163 14.1925 8.11146 14.0808 8.18374 13.9391L10.5349 14.9188C10.5712 15.0699 10.6584 15.2039 10.7818 15.2983C10.9051 15.3928 11.0572 15.4419 11.2125 15.4376C11.3678 15.4332 11.5169 15.3756 11.6348 15.2743C11.7526 15.1731 11.8321 15.0344 11.8599 14.8815L14.2387 13.0974C14.3018 13.1945 14.3886 13.2738 14.491 13.3277C14.5934 13.3816 14.708 13.4084 14.8237 13.4054C14.9394 13.4024 15.0524 13.3698 15.1519 13.3107C15.2514 13.2516 15.3341 13.1679 15.392 13.0678L17.756 14.4469C17.782 14.5722 17.8431 14.6877 17.9322 14.7797C18.0212 14.8718 18.1345 14.9367 18.2589 14.967C18.3833 14.9973 18.5138 14.9917 18.6352 14.9509C18.7566 14.9101 18.8639 14.8357 18.9447 14.7363C19.0255 14.637 19.0765 14.5167 19.0918 14.3896C19.107 14.2624 19.0859 14.1336 19.0309 14.0179C18.9759 13.9023 18.8893 13.8046 18.781 13.7362C18.6728 13.6678 18.5473 13.6314 18.4193 13.6314ZM7.80636 13.6326C7.80621 13.6925 7.78225 13.75 7.73976 13.7924C7.69726 13.8347 7.63969 13.8584 7.57971 13.8584C7.51972 13.8583 7.46221 13.8344 7.41982 13.792C7.37743 13.7495 7.35362 13.692 7.35362 13.632C7.35362 13.572 7.37743 13.5145 7.41982 13.472C7.46221 13.4296 7.51972 13.4057 7.57971 13.4056C7.63969 13.4055 7.69726 13.4293 7.73976 13.4716C7.78225 13.514 7.80621 13.5714 7.80636 13.6314V13.6326ZM11.1935 14.9863C11.1336 14.9862 11.0762 14.9624 11.0339 14.92C10.9915 14.8777 10.9677 14.8203 10.9676 14.7605V14.7593C10.9679 14.7147 10.9813 14.6712 11.0063 14.6342C11.0312 14.5972 11.0665 14.5684 11.1078 14.5515C11.1491 14.5346 11.1945 14.5303 11.2382 14.5391C11.2819 14.548 11.3221 14.5696 11.3535 14.6012C11.385 14.6328 11.4064 14.673 11.415 14.7168C11.4236 14.7606 11.4191 14.8059 11.402 14.8471C11.3848 14.8883 11.3559 14.9235 11.3188 14.9483C11.2817 14.973 11.2381 14.9863 11.1935 14.9863ZM14.8064 12.954C14.7617 12.954 14.718 12.9408 14.6809 12.916C14.6438 12.8911 14.6148 12.8559 14.5977 12.8146C14.5806 12.7734 14.5762 12.7279 14.5849 12.6841C14.5936 12.6403 14.6151 12.6001 14.6467 12.5685C14.6783 12.537 14.7185 12.5154 14.7623 12.5067C14.8061 12.498 14.8515 12.5025 14.8928 12.5196C14.934 12.5367 14.9693 12.5656 14.9941 12.6027C15.0189 12.6399 15.0322 12.6835 15.0322 12.7282C15.0321 12.7881 15.0083 12.8454 14.9659 12.8878C14.9236 12.9301 14.8662 12.9539 14.8064 12.954ZM18.4193 14.5347C18.3746 14.5347 18.3309 14.5214 18.2938 14.4966C18.2567 14.4718 18.2277 14.4365 18.2106 14.3953C18.1936 14.354 18.1891 14.3086 18.1978 14.2648C18.2065 14.221 18.228 14.1808 18.2596 14.1492C18.2912 14.1176 18.3314 14.0961 18.3752 14.0874C18.419 14.0787 18.4644 14.0831 18.5057 14.1002C18.5469 14.1173 18.5822 14.1463 18.607 14.1834C18.6318 14.2205 18.6451 14.2642 18.6451 14.3088C18.645 14.3687 18.6212 14.4261 18.5788 14.4684C18.5365 14.5108 18.4791 14.5346 18.4193 14.5347Z" fill="#373737"/>
<path d="M16.6111 14.9863H15.0305C14.9706 14.9863 14.9132 15.0101 14.8708 15.0525C14.8285 15.0948 14.8047 15.1522 14.8047 15.2121C14.8047 15.272 14.8285 15.3295 14.8708 15.3718C14.9132 15.4142 14.9706 15.4379 15.0305 15.4379H16.6111C16.671 15.4379 16.7285 15.4142 16.7708 15.3718C16.8132 15.3295 16.8369 15.272 16.8369 15.2121C16.8369 15.1522 16.8132 15.0948 16.7708 15.0525C16.7285 15.0101 16.671 14.9863 16.6111 14.9863Z" fill="#373737"/>
<path d="M16.6122 14.3086H15.9348C15.8749 14.3086 15.8175 14.3324 15.7751 14.3747C15.7328 14.4171 15.709 14.4745 15.709 14.5344C15.709 14.5943 15.7328 14.6517 15.7751 14.6941C15.8175 14.7364 15.8749 14.7602 15.9348 14.7602H16.6122C16.6721 14.7602 16.7295 14.7364 16.7719 14.6941C16.8142 14.6517 16.838 14.5943 16.838 14.5344C16.838 14.4745 16.8142 14.4171 16.7719 14.3747C16.7295 14.3324 16.6721 14.3086 16.6122 14.3086Z" fill="#373737"/>
<path d="M7.1301 12.2758H9.61397C9.67386 12.2758 9.7313 12.252 9.77364 12.2097C9.81599 12.1673 9.83978 12.1099 9.83978 12.05C9.83978 11.9901 9.81599 11.9327 9.77364 11.8904C9.7313 11.848 9.67386 11.8242 9.61397 11.8242H7.1301C7.07022 11.8242 7.01278 11.848 6.97043 11.8904C6.92809 11.9327 6.9043 11.9901 6.9043 12.05C6.9043 12.1099 6.92809 12.1673 6.97043 12.2097C7.01278 12.252 7.07022 12.2758 7.1301 12.2758Z" fill="#373737"/>
<path d="M10.2893 12.2758H10.5151C10.575 12.2758 10.6324 12.252 10.6748 12.2097C10.7171 12.1673 10.7409 12.1099 10.7409 12.05C10.7409 11.9901 10.7171 11.9327 10.6748 11.8904C10.6324 11.848 10.575 11.8242 10.5151 11.8242H10.2893C10.2294 11.8242 10.172 11.848 10.1296 11.8904C10.0873 11.9327 10.0635 11.9901 10.0635 12.05C10.0635 12.1099 10.0873 12.1673 10.1296 12.2097C10.172 12.252 10.2294 12.2758 10.2893 12.2758Z" fill="#373737"/>
</svg>
