<svg width="256" height="255" viewBox="0 0 256 255" fill="none" xmlns="http://www.w3.org/2000/svg">
<rect x="1.5" y="1" width="253" height="253" rx="126.5" stroke="#C2F4A0" stroke-width="2"/>
<path d="M185.273 102.419L187.801 96.8445L125.338 64.1816L62.875 96.8448L65.4039 102.419H185.273ZM125.338 73.079C131.775 73.079 136.993 78.2971 136.993 84.7338C136.993 91.1706 131.775 96.3886 125.338 96.3886C118.901 96.3886 113.683 91.1706 113.683 84.7338C113.683 78.2971 118.901 73.079 125.338 73.079ZM123.525 86.5727C122.908 86.3738 122.207 86.4619 121.642 86.8714C120.7 87.554 120.49 88.8708 121.172 89.8129C121.687 90.5251 122.412 91.072 123.229 91.3902V91.661C123.229 92.8259 124.173 93.7704 125.338 93.7704C126.503 93.7704 127.448 92.8259 127.448 91.661V91.3069C129.08 90.5794 130.146 88.9578 130.146 87.1606C130.146 85.248 128.938 83.5431 127.149 82.8942C127.767 83.0938 128.468 83.0062 129.034 82.596C129.976 81.9133 130.187 80.5965 129.504 79.6544C128.989 78.942 128.265 78.3957 127.447 78.0771V77.8064C127.447 76.6415 126.503 75.697 125.338 75.697C124.173 75.697 123.229 76.6415 123.229 77.8064V78.1605C121.596 78.8879 120.531 80.5095 120.531 82.3067C120.531 84.2189 121.737 85.9232 123.525 86.5727ZM125.067 81.9892H125.831C125.957 81.9892 126.019 82.0241 126.093 82.1264C126.344 82.4726 126.681 82.7199 127.053 82.8604C126.599 82.7075 126.114 82.6244 125.609 82.6244H125.067C124.897 82.6244 124.75 82.477 124.75 82.3067C124.75 82.1364 124.897 81.9892 125.067 81.9892ZM125.067 86.8432H125.609C125.78 86.8432 125.927 86.9903 125.927 87.1606C125.927 87.331 125.78 87.4781 125.609 87.4781H124.846C124.72 87.4781 124.658 87.443 124.583 87.341C124.333 86.9951 123.997 86.748 123.625 86.6075C124.079 86.7604 124.563 86.8432 125.067 86.8432ZM190.6 146.251H117.424C116.034 146.251 114.896 147.389 114.896 148.779V188.288C114.896 189.679 116.034 190.817 117.424 190.817H190.6C191.991 190.817 193.129 189.679 193.129 188.288V148.779C193.129 147.389 191.991 146.251 190.6 146.251ZM135.117 150.169C138.288 150.169 140.859 152.74 140.859 155.91C140.859 159.082 138.288 161.652 135.117 161.652C131.946 161.652 129.375 159.081 129.375 155.91C129.375 152.74 131.946 150.169 135.117 150.169ZM124.558 173.742C125.146 168.444 129.67 164.289 135.117 164.289C140.565 164.289 145.089 168.444 145.676 173.742C145.746 174.37 145.26 174.912 144.628 174.912H125.606C124.974 174.912 124.488 174.37 124.558 173.742ZM183.531 184.688H124.494C123.329 184.688 122.384 183.743 122.384 182.578C122.384 181.414 123.329 180.469 124.494 180.469H183.531C184.696 180.469 185.641 181.414 185.641 182.578C185.641 183.743 184.696 184.688 183.531 184.688ZM183.531 175.325H153.498C152.333 175.325 151.388 174.38 151.388 173.215C151.388 172.05 152.333 171.106 153.498 171.106H183.531C184.696 171.106 185.641 172.05 185.641 173.215C185.641 174.38 184.696 175.325 183.531 175.325ZM183.531 165.962H153.498C152.333 165.962 151.388 165.017 151.388 163.852C151.388 162.687 152.333 161.743 153.498 161.743H183.531C184.696 161.743 185.641 162.687 185.641 163.852C185.641 165.017 184.696 165.962 183.531 165.962ZM183.531 156.598H153.498C152.333 156.598 151.388 155.654 151.388 154.489C151.388 153.324 152.333 152.38 153.498 152.38H183.531C184.696 152.38 185.641 153.324 185.641 154.489C185.641 155.654 184.696 156.598 183.531 156.598ZM158.09 115.011H172.438L173.533 142.032H156.995L158.09 115.011ZM176.622 110.792H74.0539L72.2433 106.638H178.433L176.622 110.792ZM65.4039 176.426H110.677V184.317H62.875L65.4039 176.426ZM72.7896 168.227H110.677V172.207H71.1316L72.7896 168.227ZM78.2389 115.011H92.5871L94.5726 164.008H76.2532L78.2389 115.011ZM117.424 142.032C113.713 142.032 110.677 145.068 110.677 148.779V164.008H102.87L104.856 115.011H119.204L120.299 142.032H117.424ZM131.473 115.011H145.821L146.916 142.032H130.378L131.473 115.011Z" fill="#C2F4A0"/>
</svg>
