<svg width="256" height="255" viewBox="0 0 256 255" fill="none" xmlns="http://www.w3.org/2000/svg">
<rect x="1.5" y="1" width="253" height="253" rx="126.5" stroke="#C2F4A0" stroke-width="2"/>
<g clip-path="url(#clip0_733_4366)">
<path d="M128 60C90.7194 60 60.5 90.2194 60.5 127.5C60.5 164.781 90.7194 195 128 195C165.278 195 195.5 164.781 195.5 127.5C195.5 90.2194 165.281 60 128 60ZM170.137 169.637C158.881 180.894 143.918 187.09 128 187.09C112.082 187.09 97.1188 180.891 85.8626 169.637C74.6064 158.381 68.4102 143.418 68.4102 127.5C68.4102 111.582 74.6091 96.6188 85.8626 85.3626C97.1188 74.1064 112.082 67.9102 128 67.9102C143.918 67.9102 158.881 74.1091 170.137 85.3626C181.394 96.6188 187.59 111.582 187.59 127.5C187.59 143.418 181.391 158.381 170.137 169.637ZM152.616 134.226C151.928 132.518 150.855 131.062 149.397 129.855C147.939 128.65 146.059 127.795 143.754 127.292C146.457 126.179 148.456 124.544 149.753 122.385C151.05 120.225 151.699 117.784 151.699 115.055C151.699 109.758 149.658 105.771 145.579 103.095C143.003 101.404 139.786 100.252 135.934 99.6272H136.345V89.2676H129.972V99.0999C129.498 99.0867 129.018 99.0814 128.53 99.0814H125.044V89.2676H118.671V99.0814H102.345V107.266L108.343 108.537V147.515L102.345 148.786V156.931H118.671V165.73H125.044V156.931H129.972V165.73H136.345V156.681C141.205 156.156 145.081 154.798 147.963 152.599C151.752 149.712 153.645 145.435 153.645 139.766C153.645 137.781 153.299 135.932 152.611 134.224L152.616 134.226ZM122.299 109.731H128.538C131.636 109.731 133.948 110.282 135.472 111.379C136.996 112.479 137.756 114.235 137.756 116.645C137.756 118.844 136.941 120.465 135.312 121.512C133.682 122.559 131.225 123.081 127.942 123.081H122.299V109.731ZM137.695 144.697C136.306 145.783 134.231 146.326 131.478 146.326H122.299V132.299H132.153C133.954 132.299 135.412 132.57 136.525 133.114C137.637 133.657 138.457 134.479 138.987 135.576C139.517 136.676 139.781 138.06 139.781 139.729C139.781 141.954 139.085 143.61 137.695 144.697Z" fill="#C2F4A0"/>
</g>
<defs>
<clipPath id="clip0_733_4366">
<rect width="135" height="135" fill="white" transform="translate(60.5 60)"/>
</clipPath>
</defs>
</svg>
