<svg width="24" height="23" viewBox="0 0 24 23" fill="none" xmlns="http://www.w3.org/2000/svg">
<path fill-rule="evenodd" clip-rule="evenodd" d="M21.1933 8.07393V19.2922C21.1933 19.8503 20.9719 20.3852 20.5771 20.7793C20.1823 21.174 19.6473 21.3956 19.0892 21.3956H7.86762C7.30955 21.3956 6.77452 21.174 6.37976 20.7793C5.985 20.3852 5.76358 19.8503 5.76358 19.2922V14.2916C6.10524 14.3526 6.45692 14.3842 6.81561 14.3842C10.1059 14.3842 12.7771 11.7135 12.7771 8.4245C12.7771 5.13545 10.1059 2.46481 6.81561 2.46481C6.63426 2.46481 6.45491 2.47322 6.27857 2.48865C6.66431 2.04483 7.2334 1.76367 7.86762 1.76367H14.8811V5.97051C14.8811 6.52861 15.1026 7.06359 15.4973 7.45763C15.8921 7.85237 16.4271 8.07393 16.9852 8.07393H21.1933ZM9.97168 17.8899V17.1887C9.97168 16.8017 9.65708 16.4876 9.27033 16.4876C8.88359 16.4876 8.56899 16.8017 8.56899 17.1887V17.8899C8.56899 18.2769 8.88359 18.591 9.27033 18.591C9.65708 18.591 9.97168 18.2769 9.97168 17.8899ZM12.7771 17.8899V15.0853C12.7771 14.6983 12.4625 14.3842 12.0757 14.3842C11.689 14.3842 11.3744 14.6983 11.3744 15.0853V17.8899C11.3744 18.2769 11.689 18.591 12.0757 18.591C12.4625 18.591 12.7771 18.2769 12.7771 17.8899ZM15.5825 17.8899V15.7865C15.5825 15.3994 15.2679 15.0853 14.8811 15.0853C14.4944 15.0853 14.1798 15.3994 14.1798 15.7865V17.8899C14.1798 18.2769 14.4944 18.591 14.8811 18.591C15.2679 18.591 15.5825 18.2769 15.5825 17.8899ZM18.3879 17.8899V12.9819C18.3879 12.5949 18.0733 12.2808 17.6865 12.2808C17.2998 12.2808 16.9852 12.5949 16.9852 12.9819V17.8899C16.9852 18.2769 17.2998 18.591 17.6865 18.591C18.0733 18.591 18.3879 18.2769 18.3879 17.8899ZM16.2838 1.77699C16.7878 1.83448 17.2577 2.07288 17.6024 2.45219L20.6462 5.79873C20.8737 6.04974 21.036 6.34912 21.1221 6.67165H16.9852C16.7988 6.67165 16.6205 6.59803 16.4892 6.46621C16.358 6.3351 16.2838 6.15631 16.2838 5.97051V1.77699ZM11.3203 9.12564C10.9826 11.3083 9.09299 12.9819 6.81561 12.9819C4.29977 12.9819 2.25684 10.9395 2.25684 8.4245C2.25684 6.1479 3.93105 4.25833 6.11425 3.92108V7.72336C6.11425 8.49812 6.74247 9.12564 7.51696 9.12564H11.3203ZM7.51696 3.92108C9.47172 4.22327 11.0187 5.76928 11.3203 7.72336H7.51696V3.92108Z" fill="black"/>
</svg>
