<svg width="256" height="255" viewBox="0 0 256 255" fill="none" xmlns="http://www.w3.org/2000/svg">
<rect x="1.5" y="1" width="253" height="253" rx="126.5" stroke="#C2F4A0" stroke-width="2"/>
<path d="M146.974 146.398L145.105 145.791L152.625 141.702C154.906 140.46 157.484 140.259 159.791 140.948C161.584 141.478 163.23 142.54 164.456 144.056L152.683 150.461C151.27 148.586 149.297 147.144 146.974 146.398ZM172.416 144.679L154.597 154.374C155.18 156.475 155.18 158.769 154.463 160.997C152.504 167.08 145.943 170.445 139.858 168.486C133.234 166.347 126.606 164.211 119.977 162.081C118.975 161.759 118.429 160.683 118.751 159.682L118.914 159.165C119.236 158.171 120.312 157.617 121.306 157.939C127.935 160.077 134.566 162.207 141.195 164.343C144.992 165.569 149.102 163.46 150.32 159.663C150.658 158.624 150.748 157.556 150.613 156.539C150.27 153.833 148.401 151.418 145.643 150.529C137.324 147.853 129.005 145.172 120.686 142.487C114.018 140.341 107.495 140.956 101.351 144.304L85.7076 152.818L101.098 179.531C105.232 177.595 109.58 177.34 114.021 178.769L123.138 181.706C127.958 183.262 132.691 182.819 137.137 180.39L179.351 157.422C182.855 155.515 184.157 151.083 182.251 147.579C180.345 144.072 175.92 142.764 172.416 144.679ZM78.9576 149.812C78.4408 148.908 77.2754 148.594 76.371 149.116L66.9526 154.543C66.0482 155.059 65.7344 156.225 66.2565 157.129L87.4452 193.925C87.9673 194.821 89.1274 195.135 90.0318 194.621L99.4554 189.194C100.352 188.672 100.666 187.504 100.152 186.608L78.9576 149.812ZM108.847 67.4464H127.428L128.52 64.9205C129.14 63.4782 128.768 61.8566 127.639 60.8388C126.735 60.0241 125.443 59.9133 124.417 60.5699L123.439 61.1974C122.543 61.7722 121.467 61.7722 120.568 61.1974L119.574 60.562C118.677 59.9872 117.601 59.9872 116.705 60.562L115.711 61.1974C114.814 61.7722 113.739 61.7722 112.839 61.1974L111.861 60.5699C110.83 59.9133 109.544 60.0241 108.639 60.8388C107.511 61.8566 107.136 63.4782 107.758 64.9205L108.847 67.4464ZM90.662 104.714C90.662 95.662 95.6401 87.0162 103.07 80.841C104.431 82.0512 106.224 82.8001 108.175 82.8001H128.101C130.052 82.8001 131.845 82.0539 133.205 80.841C136.18 83.3142 138.766 86.1856 140.791 89.3154H137.936C133.712 89.3154 130.26 92.7695 130.26 96.9909V127.35C130.26 127.566 130.276 127.782 130.289 128.001C126.627 129.713 122.5 130.678 118.137 130.678C102.965 130.678 90.662 119.05 90.662 104.714ZM111.859 100.693C111.859 102.404 112.56 103.952 113.683 105.08C114.632 106.03 115.88 106.673 117.277 106.852C117.427 106.881 117.583 106.897 117.741 106.897H118.063H118.213C118.722 106.897 119.183 107.105 119.521 107.451C119.858 107.788 120.067 108.25 120.067 108.759C120.067 109.267 119.858 109.732 119.521 110.066C119.183 110.409 118.722 110.62 118.213 110.62H117.28C116.974 110.62 116.689 110.546 116.444 110.425C116.183 110.29 115.951 110.095 115.779 109.858C115.062 108.893 113.71 108.693 112.744 109.41C111.787 110.119 111.587 111.48 112.296 112.437C112.871 113.215 113.628 113.858 114.493 114.29C114.957 114.53 115.45 114.71 115.964 114.82V116.397C115.964 117.599 116.937 118.572 118.139 118.572C119.342 118.572 120.315 117.599 120.315 116.397V114.596C121.182 114.282 121.96 113.782 122.595 113.138C123.716 112.018 124.42 110.47 124.42 108.759C124.42 107.047 123.719 105.5 122.595 104.379C121.646 103.43 120.399 102.778 119.001 102.607C118.851 102.57 118.696 102.554 118.537 102.554H118.216H118.065C117.557 102.554 117.095 102.346 116.758 102.009C116.42 101.666 116.212 101.202 116.212 100.693C116.212 100.184 116.42 99.7199 116.758 99.385C117.095 99.0475 117.557 98.8392 118.065 98.8392H118.999C119.305 98.8392 119.589 98.9051 119.835 99.0343C120.096 99.1688 120.328 99.3639 120.499 99.596C121.208 100.561 122.569 100.761 123.534 100.052C124.491 99.3349 124.691 97.9823 123.982 97.0172C123.407 96.2394 122.651 95.604 121.786 95.1636C121.322 94.9237 120.829 94.7444 120.315 94.6336V93.0569C120.315 91.8598 119.342 90.8895 118.139 90.8895C116.937 90.8895 115.964 91.8625 115.964 93.0569V94.8578C115.096 95.1715 114.319 95.6725 113.683 96.3159C112.563 97.4338 111.859 98.9895 111.859 100.693ZM108.175 78.4495H128.101C129.931 78.4495 131.426 76.9544 131.426 75.1246C131.426 73.2947 129.931 71.7917 128.101 71.7917H108.175C106.345 71.7917 104.85 73.2947 104.85 75.1246C104.85 76.9544 106.343 78.4495 108.175 78.4495ZM134.611 104.168H189.995V102.18H134.611V104.168ZM186.668 93.666H137.938C136.108 93.666 134.613 95.161 134.613 96.9909V97.8267H189.998V96.9909C189.995 95.161 188.5 93.666 186.668 93.666ZM134.611 108.519H189.995V127.353C189.995 129.177 188.5 130.678 186.67 130.678H137.938C136.108 130.678 134.613 129.175 134.613 127.353V108.519H134.611ZM165.45 116.598C165.45 117.8 166.428 118.773 167.625 118.773H181.616C182.818 118.773 183.791 117.8 183.791 116.598C183.791 115.4 182.818 114.422 181.616 114.422H167.625C166.428 114.422 165.45 115.4 165.45 116.598ZM165.45 122.599C165.45 123.796 166.428 124.766 167.625 124.766H174.62C175.823 124.766 176.796 123.793 176.796 122.599C176.796 121.396 175.823 120.423 174.62 120.423H167.625C166.428 120.423 165.45 121.396 165.45 122.599ZM142.99 122.725C142.99 123.421 143.557 123.988 144.253 123.988H150.51C151.206 123.988 151.773 123.421 151.773 122.725V116.468C151.773 115.772 151.206 115.205 150.51 115.205H144.253C143.557 115.205 142.99 115.772 142.99 116.468V122.725Z" fill="#C2F4A0"/>
</svg>
