<svg width="23" height="23" viewBox="0 0 23 23" fill="none" xmlns="http://www.w3.org/2000/svg">
<path d="M11.2846 0.361328C5.08897 0.361328 0.0664062 5.38389 0.0664062 11.5795C0.0664062 17.7752 5.08897 22.7977 11.2846 22.7977C17.4803 22.7977 22.5028 17.7752 22.5028 11.5795C22.4962 5.38666 17.4775 0.367948 11.2846 0.361328ZM16.009 11.937C15.9314 12.0928 15.8051 12.2191 15.6493 12.2967V12.3007L9.2389 15.5059C8.84301 15.7037 8.36176 15.5432 8.1639 15.1473C8.10766 15.0348 8.07869 14.9105 8.07939 14.7848V8.37436C8.0792 7.9318 8.43777 7.5729 8.88033 7.57267C9.0048 7.57262 9.12758 7.60154 9.2389 7.65718L15.6493 10.8624C16.0454 11.0598 16.2065 11.5409 16.009 11.937Z" fill="black"/>
</svg>
