<svg width="69" height="12" viewBox="0 0 69 12" fill="none" xmlns="http://www.w3.org/2000/svg">
<path d="M8.40757 3.68227C8.40757 4.28991 8.26109 4.85958 7.96812 5.39126C7.686 5.92295 7.2357 6.35155 6.6172 6.67707C6.00956 7.00259 5.23916 7.16535 4.306 7.16535H2.4017V11.5273H0.123049V0.166642H4.306C5.18491 0.166642 5.93361 0.318552 6.5521 0.622372C7.17059 0.926192 7.63175 1.34394 7.93557 1.87563C8.25024 2.40731 8.40757 3.00953 8.40757 3.68227ZM4.20835 5.32616C4.83769 5.32616 5.30427 5.1851 5.60809 4.90298C5.91191 4.61001 6.06382 4.20311 6.06382 3.68227C6.06382 2.5755 5.44533 2.02211 4.20835 2.02211H2.4017V5.32616H4.20835ZM9.43945 6.98632C9.43945 6.07486 9.61849 5.26648 9.97656 4.56118C10.3455 3.85589 10.8392 3.31335 11.4577 2.93357C12.087 2.5538 12.7869 2.36391 13.5573 2.36391C14.23 2.36391 14.816 2.49955 15.3151 2.77081C15.8251 3.04208 16.232 3.38388 16.5358 3.79621V2.5104H18.8307V11.5273H16.5358V10.209C16.2429 10.6322 15.8359 10.9848 15.3151 11.2669C14.8051 11.5382 14.2138 11.6738 13.541 11.6738C12.7815 11.6738 12.087 11.4785 11.4577 11.0879C10.8392 10.6973 10.3455 10.1493 9.97656 9.44401C9.61849 8.72786 9.43945 7.90863 9.43945 6.98632ZM16.5358 7.01887C16.5358 6.46548 16.4273 5.99348 16.2103 5.60285C15.9933 5.20137 15.7003 4.89755 15.3314 4.69139C14.9625 4.47438 14.5664 4.36587 14.1432 4.36587C13.7201 4.36587 13.3294 4.46895 12.9714 4.67511C12.6133 4.88128 12.3203 5.1851 12.0925 5.58658C11.8754 5.9772 11.7669 6.44378 11.7669 6.98632C11.7669 7.52885 11.8754 8.00629 12.0925 8.41861C12.3203 8.82009 12.6133 9.12933 12.9714 9.34635C13.3403 9.56336 13.7309 9.67187 14.1432 9.67187C14.5664 9.67187 14.9625 9.56879 15.3314 9.36263C15.7003 9.14561 15.9933 8.84179 16.2103 8.45116C16.4273 8.04969 16.5358 7.57226 16.5358 7.01887ZM23.3349 3.91014C23.6279 3.43271 24.0076 3.05836 24.4742 2.78709C24.9517 2.51582 25.4942 2.38019 26.1018 2.38019V4.77277H25.4996C24.7835 4.77277 24.2409 4.94096 23.872 5.27733C23.5139 5.6137 23.3349 6.19964 23.3349 7.03515V11.5273H21.0562V2.5104H23.3349V3.91014ZM30.2896 4.38215V8.74413C30.2896 9.04795 30.3601 9.27039 30.5012 9.41145C30.6531 9.54166 30.9027 9.60677 31.2499 9.60677H32.3078V11.5273H30.8756C28.955 11.5273 27.9947 10.5942 27.9947 8.72786V4.38215H26.9205V2.5104H27.9947V0.280574H30.2896V2.5104H32.3078V4.38215H30.2896ZM38.9435 2.38019C40.0177 2.38019 40.8858 2.72199 41.5477 3.40558C42.2096 4.07833 42.5405 5.02234 42.5405 6.23762V11.5273H40.2619V6.54686C40.2619 5.83072 40.0829 5.28276 39.7248 4.90298C39.3667 4.51235 38.8784 4.31704 38.2599 4.31704C37.6306 4.31704 37.1315 4.51235 36.7625 4.90298C36.4045 5.28276 36.2254 5.83072 36.2254 6.54686V11.5273H33.9468V2.5104H36.2254V3.63345C36.5292 3.24282 36.9144 2.939 37.381 2.72199C37.8585 2.49412 38.3793 2.38019 38.9435 2.38019ZM53.0896 6.82356C53.0896 7.14908 53.0679 7.44205 53.0245 7.70247H46.4327C46.4869 8.35351 46.7148 8.86349 47.1163 9.23242C47.5178 9.60134 48.0115 9.7858 48.5974 9.7858C49.4438 9.7858 50.046 9.4223 50.4041 8.69531H52.8617C52.6013 9.56336 52.1022 10.2795 51.3643 10.8437C50.6265 11.3971 49.7205 11.6738 48.6462 11.6738C47.7782 11.6738 46.9969 11.4839 46.3025 11.1042C45.6189 10.7135 45.0818 10.1656 44.6911 9.46028C44.3114 8.75499 44.1215 7.94118 44.1215 7.01887C44.1215 6.08571 44.3114 5.26648 44.6911 4.56118C45.0709 3.85589 45.6026 3.31335 46.2862 2.93357C46.9698 2.5538 47.7565 2.36391 48.6462 2.36391C49.5034 2.36391 50.2684 2.54837 50.9412 2.9173C51.6248 3.28622 52.151 3.81248 52.5199 4.49608C52.8997 5.16882 53.0896 5.94465 53.0896 6.82356ZM50.7296 6.17251C50.7187 5.58658 50.5071 5.11999 50.0948 4.77277C49.6825 4.4147 49.1779 4.23566 48.5811 4.23566C48.0169 4.23566 47.5395 4.40927 47.1488 4.7565C46.7691 5.09287 46.5358 5.56487 46.449 6.17251H50.7296ZM57.0315 3.91014C57.3244 3.43271 57.7042 3.05836 58.1708 2.78709C58.6482 2.51582 59.1908 2.38019 59.7984 2.38019V4.77277H59.1962C58.48 4.77277 57.9375 4.94096 57.5686 5.27733C57.2105 5.6137 57.0315 6.19964 57.0315 7.03515V11.5273H54.7528V2.5104H57.0315V3.91014ZM64.7837 11.6738C64.0459 11.6738 63.384 11.5436 62.798 11.2832C62.2121 11.0119 61.7455 10.6484 61.3983 10.1927C61.0619 9.73698 60.8774 9.23242 60.8449 8.67903H63.1398C63.1832 9.02625 63.3514 9.3138 63.6444 9.54166C63.9482 9.76953 64.3226 9.88346 64.7674 9.88346C65.2015 9.88346 65.5378 9.79665 65.7765 9.62304C66.0261 9.44943 66.1509 9.22699 66.1509 8.95572C66.1509 8.66275 65.999 8.44574 65.6952 8.30468C65.4022 8.15277 64.9302 7.99001 64.2791 7.8164C63.6064 7.65364 63.053 7.48545 62.619 7.31184C62.1958 7.13823 61.8269 6.87239 61.5122 6.51431C61.2084 6.15624 61.0565 5.67338 61.0565 5.06574C61.0565 4.56661 61.1975 4.11088 61.4797 3.69855C61.7726 3.28622 62.185 2.9607 62.7166 2.72199C63.2592 2.48327 63.8939 2.36391 64.6209 2.36391C65.6952 2.36391 66.5524 2.63518 67.1926 3.17772C67.8328 3.7094 68.1854 4.43097 68.2505 5.34243H66.0695C66.037 4.98436 65.8851 4.70224 65.6138 4.49608C65.3534 4.27906 65.0007 4.17056 64.5558 4.17056C64.1435 4.17056 63.8234 4.24651 63.5956 4.39842C63.3785 4.55033 63.27 4.76192 63.27 5.03319C63.27 5.33701 63.4219 5.5703 63.7258 5.73306C64.0296 5.88497 64.5016 6.04231 65.1418 6.20507C65.7928 6.36783 66.3299 6.53601 66.7531 6.70962C67.1763 6.88324 67.5398 7.1545 67.8436 7.52343C68.1583 7.8815 68.321 8.35893 68.3319 8.95572C68.3319 9.47656 68.1854 9.94314 67.8924 10.3555C67.6103 10.7678 67.198 11.0933 66.6555 11.332C66.1238 11.5599 65.4999 11.6738 64.7837 11.6738Z" fill="black"/>
</svg>
